<svg width="148" height="73" viewBox="0 0 148 73" fill="none" xmlns="http://www.w3.org/2000/svg">
<path d="M39.448 46.552C43.288 52.696 47.896 58.616 53.272 64.312L40.504 72.568C34.616 64.952 28.952 55.864 23.512 45.304C19.096 52.92 15.096 61.08 11.512 69.784L0.664 59.8C4.952 50.328 8.792 42.808 12.184 37.24C17.688 28.088 23.416 19.992 29.368 12.952C24.952 12.184 20.952 11.8 17.368 11.8L21.496 0.375999C33.528 0.759998 43.992 2.328 52.888 5.08C56.216 6.104 59.576 7.352 62.968 8.824L70.456 25.336C63.928 33.976 53.592 41.048 39.448 46.552ZM27.352 38.872C36.056 35.544 43.8 31.352 50.584 26.296C52.888 24.632 54.872 22.936 56.536 21.208C50.456 18.008 42.392 15.448 32.344 13.528L40.6 20.248C35.48 26.776 31.064 32.984 27.352 38.872ZM83.0705 59.064C89.8118 58.5947 95.9558 56.9947 101.502 54.264L103.998 61.56C97.0012 65.8693 88.9158 68.3653 79.7425 69.048L71.6145 61.496C73.5345 53.1333 76.9478 45.56 81.8545 38.776C87.4438 31.1387 94.2278 25.6347 102.206 22.264L114.367 31.032C113.257 34.6587 111.252 38.8613 108.35 43.64C107.54 44.9627 106.772 46.136 106.046 47.16L98.6225 43.064C101.524 38.072 103.465 33.8693 104.446 30.456C99.1132 33.1013 94.3985 37.1547 90.3025 42.616C86.3772 47.9493 83.9665 53.432 83.0705 59.064ZM124.824 50.248C127.8 47.976 131.224 45.816 135.096 43.768L140.904 48.328C139.848 52.872 137.992 56.968 135.336 60.616C138.536 59.528 142.168 57.944 146.232 55.864L147.24 60.712C145.928 61.576 143.928 62.68 141.24 64.024C136.632 66.296 133.448 67.72 131.688 68.296L125.736 64.072C127.656 61.768 129.256 59.496 130.536 57.256C131.848 54.984 132.696 53 133.08 51.304C128.888 53.384 126.12 54.856 124.776 55.72C123.464 56.584 122.28 57.384 121.224 58.12C119.656 61.992 118.456 65.384 117.624 68.296L111.912 64.6C112.968 60.984 115.288 55.576 118.872 48.376C122.136 41.784 125.064 36.568 127.656 32.728L132.552 36.424C129.864 40.776 127.288 45.384 124.824 50.248Z" fill="url(#paint0_linear_1861_184)"/>
<defs>
<linearGradient id="paint0_linear_1861_184" x1="10.689" y1="-13.6793" x2="148.354" y2="-1.33554" gradientUnits="userSpaceOnUse">
<stop stop-color="#8D74F2"/>
<stop offset="1" stop-color="#7051EF"/>
</linearGradient>
</defs>
</svg>
