<svg width="671" height="593" viewBox="0 0 671 593" fill="none" xmlns="http://www.w3.org/2000/svg">
<g clip-path="url(#clip0_81_462)">
<rect x="100" y="125" width="454.634" height="467.19" rx="227.317" fill="url(#paint0_linear_81_462)"/>
<rect x="264.634" y="248.13" width="125.366" height="148.41" rx="62.683" fill="white"/>
<path d="M315.796 346.333C315.796 346.333 312.441 348.284 318.183 348.944C325.14 349.738 328.696 349.624 336.362 348.173C336.362 348.173 338.378 349.437 341.193 350.531C324.006 357.897 302.297 350.105 315.796 346.333Z" fill="#7051EF"/>
<path d="M313.696 336.721C313.696 336.721 309.933 339.507 315.68 340.101C323.111 340.868 328.98 340.931 339.135 338.975C339.135 338.975 340.54 340.399 342.749 341.178C321.97 347.254 298.825 341.657 313.696 336.721Z" fill="#7051EF"/>
<path d="M331.4 320.416C335.635 325.292 330.287 329.679 330.287 329.679C330.287 329.679 341.04 324.128 336.102 317.177C331.49 310.695 327.953 307.475 347.1 296.37C347.1 296.37 317.045 303.876 331.4 320.416Z" fill="#E76F00"/>
<path d="M354.13 353.443C354.13 353.443 356.613 355.488 351.396 357.071C341.476 360.076 310.107 360.984 301.393 357.191C298.261 355.828 304.135 353.937 305.983 353.54C307.91 353.122 309.011 353.2 309.011 353.2C305.528 350.746 286.495 358.019 299.343 360.101C334.384 365.784 363.219 357.543 354.13 353.443Z" fill="#7051EF"/>
<path d="M317.41 326.763C317.41 326.763 301.454 330.552 311.759 331.929C316.11 332.511 324.785 332.379 332.865 331.702C339.468 331.145 346.098 329.961 346.098 329.961C346.098 329.961 343.77 330.958 342.085 332.108C325.882 336.37 294.581 334.387 303.592 330.029C311.213 326.345 317.41 326.763 317.41 326.763Z" fill="#7051EF"/>
<path d="M346.032 342.762C362.504 334.202 354.888 325.977 349.572 327.085C348.27 327.357 347.689 327.592 347.689 327.592C347.689 327.592 348.172 326.834 349.096 326.506C359.612 322.809 367.699 337.41 345.701 343.193C345.701 343.193 345.956 342.965 346.032 342.762Z" fill="#7051EF"/>
<path d="M336.102 278.439C336.102 278.439 345.224 287.564 327.45 301.596C313.198 312.852 324.2 319.269 327.445 326.602C319.125 319.096 313.02 312.488 317.116 306.338C323.127 297.31 339.783 292.934 336.102 278.439Z" fill="#E76F00"/>
<path d="M319.028 365.955C334.838 366.967 359.116 365.393 359.691 357.912C359.691 357.912 358.586 360.748 346.625 363C333.131 365.54 316.487 365.243 306.616 363.616C306.616 363.616 308.637 365.288 319.028 365.955Z" fill="#7051EF"/>
<path d="M266.862 447.054H259.98L259.943 443.465H265.845C266.856 443.465 267.701 443.323 268.379 443.04C269.057 442.756 269.569 442.343 269.914 441.8C270.272 441.258 270.451 440.598 270.451 439.821C270.451 438.958 270.284 438.255 269.951 437.712C269.631 437.169 269.125 436.775 268.434 436.528C267.744 436.269 266.868 436.14 265.808 436.14H261.627V459.06H256.539V432.125H265.808C267.337 432.125 268.7 432.273 269.896 432.569C271.104 432.853 272.128 433.297 272.967 433.901C273.805 434.506 274.44 435.264 274.872 436.177C275.316 437.089 275.538 438.175 275.538 439.433C275.538 440.542 275.279 441.566 274.761 442.503C274.255 443.428 273.472 444.181 272.412 444.76C271.363 445.34 270.032 445.673 268.416 445.759L266.862 447.054ZM266.64 459.06H258.482L260.609 455.064H266.64C267.651 455.064 268.484 454.898 269.137 454.565C269.803 454.232 270.297 453.775 270.617 453.196C270.95 452.604 271.117 451.926 271.117 451.161C271.117 450.322 270.969 449.595 270.673 448.978C270.389 448.361 269.933 447.887 269.304 447.554C268.687 447.221 267.873 447.054 266.862 447.054H261.571L261.608 443.465H268.342L269.507 444.853C271.061 444.865 272.325 445.173 273.3 445.778C274.286 446.382 275.014 447.159 275.483 448.109C275.951 449.058 276.186 450.082 276.186 451.179C276.186 452.906 275.809 454.355 275.057 455.527C274.317 456.698 273.232 457.58 271.801 458.172C270.383 458.764 268.663 459.06 266.64 459.06ZM291.244 454.805V445.574C291.244 444.896 291.127 444.31 290.892 443.817C290.658 443.323 290.3 442.941 289.819 442.67C289.338 442.399 288.728 442.263 287.988 442.263C287.334 442.263 286.761 442.374 286.268 442.596C285.787 442.818 285.417 443.132 285.158 443.539C284.899 443.934 284.769 444.39 284.769 444.908H279.867C279.867 444.082 280.064 443.299 280.459 442.559C280.853 441.807 281.415 441.141 282.142 440.561C282.882 439.969 283.764 439.506 284.788 439.174C285.824 438.841 286.983 438.674 288.265 438.674C289.782 438.674 291.133 438.933 292.317 439.451C293.513 439.957 294.45 440.721 295.129 441.745C295.819 442.769 296.165 444.057 296.165 445.611V454.343C296.165 455.342 296.226 456.199 296.35 456.914C296.485 457.617 296.683 458.228 296.942 458.746V459.06H291.965C291.731 458.554 291.552 457.913 291.429 457.136C291.305 456.347 291.244 455.57 291.244 454.805ZM291.928 446.869L291.965 449.774H288.876C288.111 449.774 287.439 449.854 286.86 450.014C286.28 450.162 285.805 450.384 285.435 450.68C285.065 450.964 284.788 451.309 284.603 451.716C284.418 452.111 284.325 452.561 284.325 453.066C284.325 453.56 284.436 454.004 284.658 454.398C284.892 454.793 285.225 455.107 285.657 455.342C286.101 455.564 286.619 455.675 287.211 455.675C288.074 455.675 288.827 455.502 289.468 455.157C290.109 454.799 290.609 454.367 290.966 453.862C291.324 453.356 291.515 452.875 291.54 452.419L292.946 454.528C292.773 455.033 292.514 455.57 292.169 456.137C291.823 456.705 291.379 457.235 290.837 457.728C290.294 458.221 289.641 458.628 288.876 458.949C288.111 459.27 287.223 459.43 286.212 459.43C284.917 459.43 283.758 459.171 282.734 458.653C281.711 458.135 280.903 457.426 280.311 456.526C279.719 455.625 279.423 454.602 279.423 453.455C279.423 452.394 279.62 451.457 280.015 450.643C280.41 449.829 280.995 449.145 281.772 448.59C282.549 448.022 283.511 447.597 284.658 447.313C285.817 447.017 287.143 446.869 288.635 446.869H291.928ZM308.781 455.582C309.472 455.582 310.088 455.447 310.631 455.175C311.174 454.904 311.605 454.522 311.926 454.028C312.259 453.535 312.438 452.962 312.462 452.308H317.069C317.044 453.664 316.662 454.879 315.922 455.952C315.182 457.025 314.195 457.876 312.962 458.505C311.741 459.122 310.372 459.43 308.855 459.43C307.313 459.43 305.969 459.171 304.822 458.653C303.675 458.135 302.719 457.414 301.955 456.489C301.202 455.564 300.635 454.491 300.253 453.27C299.883 452.049 299.698 450.742 299.698 449.348V448.756C299.698 447.362 299.883 446.055 300.253 444.834C300.635 443.613 301.202 442.54 301.955 441.615C302.719 440.69 303.675 439.969 304.822 439.451C305.969 438.933 307.307 438.674 308.836 438.674C310.452 438.674 311.87 438.989 313.091 439.617C314.325 440.246 315.286 441.134 315.977 442.281C316.68 443.428 317.044 444.779 317.069 446.333H312.462C312.438 445.617 312.277 444.976 311.981 444.409C311.685 443.841 311.266 443.385 310.723 443.04C310.181 442.695 309.521 442.522 308.744 442.522C307.918 442.522 307.227 442.695 306.672 443.04C306.129 443.385 305.704 443.86 305.396 444.464C305.1 445.056 304.89 445.722 304.767 446.462C304.656 447.19 304.6 447.954 304.6 448.756V449.348C304.6 450.162 304.656 450.939 304.767 451.679C304.89 452.419 305.1 453.085 305.396 453.677C305.704 454.256 306.129 454.719 306.672 455.064C307.227 455.41 307.93 455.582 308.781 455.582ZM325.208 430.627V459.06H320.324V430.627H325.208ZM337.751 439.044L329.037 448.83L324.32 453.621L322.766 449.829L326.411 445.241L331.849 439.044H337.751ZM332.756 459.06L326.559 449.737L329.814 446.573L338.417 459.06H332.756ZM348.961 459.43C347.444 459.43 346.081 459.183 344.873 458.69C343.664 458.197 342.634 457.512 341.783 456.637C340.945 455.749 340.297 454.719 339.841 453.547C339.397 452.363 339.175 451.093 339.175 449.737V448.997C339.175 447.455 339.397 446.055 339.841 444.797C340.285 443.527 340.914 442.436 341.728 441.523C342.542 440.61 343.516 439.907 344.651 439.414C345.785 438.921 347.037 438.674 348.406 438.674C349.824 438.674 351.076 438.915 352.161 439.396C353.247 439.864 354.153 440.53 354.881 441.393C355.608 442.257 356.157 443.293 356.527 444.501C356.897 445.698 357.082 447.023 357.082 448.479V450.532H341.395V447.165H352.272V446.795C352.248 446.018 352.1 445.309 351.828 444.668C351.557 444.014 351.138 443.496 350.57 443.114C350.003 442.719 349.269 442.522 348.369 442.522C347.641 442.522 347.006 442.682 346.464 443.003C345.933 443.311 345.489 443.755 345.132 444.335C344.786 444.902 344.527 445.58 344.355 446.37C344.182 447.159 344.096 448.035 344.096 448.997V449.737C344.096 450.575 344.207 451.352 344.429 452.067C344.663 452.783 345.002 453.405 345.446 453.936C345.903 454.454 346.445 454.861 347.074 455.157C347.715 455.44 348.443 455.582 349.257 455.582C350.281 455.582 351.206 455.385 352.032 454.99C352.871 454.583 353.598 453.985 354.215 453.196L356.675 455.749C356.256 456.365 355.689 456.957 354.973 457.525C354.27 458.092 353.419 458.554 352.42 458.912C351.421 459.257 350.268 459.43 348.961 459.43ZM365.148 443.317V459.06H360.264V439.044H364.852L365.148 443.317ZM364.371 448.331H362.928C362.94 446.875 363.138 445.556 363.52 444.372C363.902 443.188 364.439 442.17 365.129 441.319C365.832 440.468 366.665 439.815 367.627 439.359C368.589 438.902 369.662 438.674 370.845 438.674C371.807 438.674 372.677 438.81 373.454 439.081C374.231 439.352 374.897 439.784 375.452 440.376C376.019 440.968 376.451 441.745 376.747 442.707C377.055 443.656 377.209 444.828 377.209 446.222V459.06H372.288V446.185C372.288 445.272 372.153 444.551 371.881 444.02C371.622 443.49 371.24 443.114 370.734 442.892C370.241 442.67 369.631 442.559 368.903 442.559C368.151 442.559 367.491 442.713 366.924 443.021C366.369 443.317 365.9 443.73 365.518 444.261C365.148 444.791 364.864 445.402 364.667 446.092C364.469 446.783 364.371 447.529 364.371 448.331ZM393.525 454.805V430.645H398.446V459.06H394.006L393.525 454.805ZM380.669 449.293V448.904C380.669 447.375 380.841 445.987 381.186 444.742C381.544 443.484 382.062 442.405 382.74 441.504C383.419 440.604 384.239 439.907 385.201 439.414C386.175 438.921 387.279 438.674 388.512 438.674C389.708 438.674 390.751 438.915 391.638 439.396C392.539 439.876 393.303 440.561 393.932 441.449C394.574 442.337 395.085 443.391 395.468 444.612C395.85 445.821 396.128 447.153 396.3 448.608V449.663C396.128 451.081 395.85 452.382 395.468 453.566C395.085 454.75 394.574 455.786 393.932 456.674C393.303 457.549 392.539 458.228 391.638 458.709C390.738 459.19 389.684 459.43 388.475 459.43C387.254 459.43 386.157 459.177 385.182 458.672C384.22 458.166 383.4 457.457 382.722 456.544C382.056 455.632 381.544 454.559 381.186 453.325C380.841 452.092 380.669 450.748 380.669 449.293ZM385.571 448.904V449.293C385.571 450.156 385.645 450.964 385.793 451.716C385.941 452.468 386.181 453.134 386.514 453.714C386.847 454.281 387.273 454.725 387.791 455.046C388.321 455.366 388.962 455.527 389.715 455.527C390.677 455.527 391.466 455.317 392.082 454.898C392.711 454.466 393.199 453.88 393.544 453.14C393.889 452.388 394.111 451.543 394.21 450.606V447.702C394.161 446.962 394.031 446.277 393.821 445.648C393.624 445.019 393.34 444.477 392.97 444.02C392.613 443.564 392.169 443.206 391.638 442.947C391.108 442.688 390.479 442.559 389.752 442.559C388.999 442.559 388.358 442.725 387.828 443.058C387.297 443.379 386.866 443.829 386.533 444.409C386.2 444.988 385.953 445.661 385.793 446.425C385.645 447.19 385.571 448.016 385.571 448.904Z" fill="white"/>
</g>
<rect y="231" width="196" height="169.522" rx="84.7609" fill="#F5F6F7"/>
<path d="M84.0358 290.4C84.0358 291.187 84.121 291.826 84.27 292.294C84.4402 292.762 84.6531 293.273 84.9511 293.827C85.0575 293.997 85.1001 294.167 85.1001 294.316C85.1001 294.529 84.9724 294.742 84.6957 294.955L83.3547 295.849C83.1631 295.976 82.9715 296.04 82.8012 296.04C82.5884 296.04 82.3755 295.934 82.1627 295.742C81.8647 295.423 81.6092 295.082 81.3964 294.742C81.1835 294.38 80.9707 293.976 80.7365 293.486C79.0762 295.444 76.9902 296.423 74.4785 296.423C72.6905 296.423 71.2644 295.913 70.2214 294.891C69.1784 293.869 68.6462 292.507 68.6462 290.804C68.6462 288.995 69.2848 287.526 70.5832 286.419C71.8817 285.312 73.6058 284.759 75.7982 284.759C76.522 284.759 77.267 284.823 78.0545 284.929C78.8421 285.036 79.651 285.206 80.5024 285.397V283.844C80.5024 282.226 80.1618 281.098 79.502 280.438C78.8208 279.778 77.6714 279.459 76.0324 279.459C75.2874 279.459 74.5211 279.544 73.7335 279.735C72.946 279.927 72.1797 280.161 71.4347 280.459C71.0941 280.608 70.8387 280.693 70.6897 280.736C70.5407 280.778 70.4342 280.8 70.3491 280.8C70.0511 280.8 69.9021 280.587 69.9021 280.14V279.097C69.9021 278.756 69.9447 278.501 70.0511 278.352C70.1575 278.203 70.3491 278.054 70.6471 277.905C71.3921 277.522 72.2861 277.202 73.3291 276.947C74.3721 276.67 75.479 276.543 76.6497 276.543C79.1827 276.543 81.0345 277.117 82.2265 278.267C83.3972 279.416 83.9933 281.162 83.9933 283.503V290.4H84.0358ZM75.3938 293.635C76.0962 293.635 76.82 293.507 77.5862 293.252C78.3525 292.996 79.0337 292.528 79.6084 291.89C79.949 291.485 80.2044 291.038 80.3321 290.527C80.4598 290.016 80.545 289.399 80.545 288.675V287.781C79.9277 287.632 79.2678 287.505 78.5867 287.42C77.9055 287.334 77.2457 287.292 76.5858 287.292C75.1597 287.292 74.1167 287.569 73.4142 288.143C72.7118 288.718 72.3712 289.527 72.3712 290.591C72.3712 291.592 72.6267 292.337 73.1588 292.847C73.6697 293.38 74.4147 293.635 75.3938 293.635ZM92.4863 295.934C92.1031 295.934 91.8477 295.87 91.6774 295.721C91.5071 295.593 91.3581 295.295 91.2304 294.891L86.2283 278.437C86.1005 278.011 86.0367 277.735 86.0367 277.586C86.0367 277.245 86.207 277.053 86.5475 277.053H88.6335C89.038 277.053 89.3147 277.117 89.4637 277.266C89.634 277.394 89.7617 277.692 89.8894 278.096L93.4654 292.188L96.786 278.096C96.8924 277.671 97.0201 277.394 97.1904 277.266C97.3607 277.139 97.6587 277.053 98.0418 277.053H99.7447C100.149 277.053 100.426 277.117 100.596 277.266C100.766 277.394 100.915 277.692 101.001 278.096L104.364 292.358L108.046 278.096C108.174 277.671 108.323 277.394 108.472 277.266C108.642 277.139 108.919 277.053 109.302 277.053H111.282C111.622 277.053 111.814 277.224 111.814 277.586C111.814 277.692 111.792 277.798 111.771 277.926C111.75 278.054 111.707 278.224 111.622 278.458L106.492 294.912C106.365 295.338 106.216 295.615 106.045 295.742C105.875 295.87 105.598 295.955 105.236 295.955H103.406C103.001 295.955 102.725 295.891 102.554 295.742C102.384 295.593 102.235 295.317 102.15 294.891L98.8507 281.162L95.5727 294.87C95.4663 295.295 95.3385 295.572 95.1683 295.721C94.998 295.87 94.7 295.934 94.3168 295.934H92.4863ZM119.838 296.509C118.732 296.509 117.625 296.381 116.56 296.125C115.496 295.87 114.666 295.593 114.113 295.274C113.772 295.082 113.538 294.87 113.453 294.678C113.368 294.486 113.325 294.274 113.325 294.082V292.996C113.325 292.549 113.495 292.337 113.815 292.337C113.942 292.337 114.07 292.358 114.198 292.4C114.325 292.443 114.517 292.528 114.73 292.613C115.454 292.933 116.241 293.188 117.071 293.358C117.923 293.529 118.753 293.614 119.604 293.614C120.945 293.614 121.988 293.38 122.712 292.911C123.436 292.443 123.819 291.762 123.819 290.889C123.819 290.293 123.627 289.804 123.244 289.399C122.861 288.995 122.137 288.633 121.094 288.292L118.008 287.334C116.454 286.845 115.305 286.121 114.602 285.163C113.9 284.227 113.538 283.184 113.538 282.077C113.538 281.183 113.729 280.395 114.113 279.714C114.496 279.033 115.007 278.437 115.645 277.969C116.284 277.479 117.007 277.117 117.859 276.862C118.71 276.606 119.604 276.5 120.541 276.5C121.009 276.5 121.499 276.521 121.967 276.585C122.457 276.649 122.904 276.734 123.351 276.819C123.776 276.926 124.181 277.032 124.564 277.16C124.947 277.288 125.245 277.415 125.458 277.543C125.756 277.713 125.969 277.884 126.096 278.075C126.224 278.245 126.288 278.48 126.288 278.778V279.778C126.288 280.225 126.118 280.459 125.798 280.459C125.628 280.459 125.351 280.374 124.99 280.204C123.776 279.65 122.414 279.374 120.903 279.374C119.689 279.374 118.732 279.565 118.072 279.97C117.412 280.374 117.071 280.991 117.071 281.864C117.071 282.46 117.284 282.971 117.71 283.375C118.136 283.78 118.923 284.184 120.051 284.546L123.074 285.504C124.606 285.993 125.713 286.675 126.373 287.547C127.033 288.42 127.352 289.42 127.352 290.527C127.352 291.443 127.161 292.273 126.799 292.996C126.416 293.72 125.905 294.359 125.245 294.87C124.585 295.402 123.798 295.785 122.882 296.062C121.924 296.36 120.924 296.509 119.838 296.509Z" fill="#252F3E"/>
<path d="M123.861 306.853C116.858 312.026 106.684 314.772 97.9354 314.772C85.6748 314.772 74.6275 310.238 66.2835 302.703C65.6237 302.107 66.2197 301.298 67.0072 301.766C76.0324 307.002 87.1648 310.174 98.6804 310.174C106.45 310.174 114.985 308.556 122.84 305.236C124.01 304.704 125.011 306.002 123.861 306.853ZM126.778 303.533C125.884 302.383 120.86 302.979 118.583 303.256C117.901 303.341 117.795 302.745 118.412 302.298C122.414 299.489 128.991 300.297 129.758 301.234C130.524 302.192 129.545 308.769 125.798 311.919C125.224 312.409 124.67 312.154 124.926 311.515C125.777 309.408 127.672 304.661 126.778 303.533Z" fill="#7051EF"/>
<path d="M72.7327 347.022H70.0752L70.0923 345.321H72.7327C73.5017 345.321 74.1454 345.153 74.6638 344.817C75.1879 344.481 75.581 344 75.843 343.373C76.1108 342.746 76.2446 342 76.2446 341.134V340.459C76.2446 339.787 76.1677 339.192 76.0139 338.673C75.8658 338.155 75.6436 337.719 75.3474 337.366C75.0569 337.013 74.698 336.745 74.2708 336.563C73.8492 336.38 73.3621 336.289 72.8096 336.289H70.0239V334.58H72.8096C73.6356 334.58 74.3904 334.72 75.074 334.999C75.7576 335.272 76.3472 335.668 76.8428 336.187C77.3441 336.705 77.7286 337.326 77.9963 338.05C78.2641 338.773 78.3979 339.582 78.3979 340.476V341.134C78.3979 342.029 78.2641 342.838 77.9963 343.561C77.7286 344.285 77.3441 344.905 76.8428 345.424C76.3415 345.937 75.7433 346.332 75.0483 346.612C74.359 346.885 73.5872 347.022 72.7327 347.022ZM71.2629 334.58V347.022H69.1182V334.58H71.2629ZM84.4221 347.193C83.7385 347.193 83.1204 347.082 82.5679 346.859C82.021 346.632 81.5539 346.315 81.1665 345.911C80.7848 345.506 80.4915 345.031 80.2864 344.484C80.0813 343.937 79.9788 343.347 79.9788 342.715V342.373C79.9788 341.65 80.0841 340.995 80.2949 340.408C80.5057 339.821 80.7991 339.32 81.175 338.904C81.551 338.483 81.9954 338.161 82.5081 337.938C83.0208 337.716 83.5762 337.605 84.1743 337.605C84.8351 337.605 85.4133 337.716 85.9089 337.938C86.4045 338.161 86.8147 338.474 87.1394 338.878C87.4698 339.277 87.7148 339.753 87.8743 340.305C88.0395 340.858 88.1221 341.468 88.1221 342.134V343.014H80.9785V341.536H86.0884V341.374C86.077 341.003 86.0029 340.656 85.8662 340.331C85.7352 340.006 85.533 339.744 85.2595 339.545C84.9861 339.346 84.6215 339.246 84.1658 339.246C83.824 339.246 83.5192 339.32 83.2515 339.468C82.9894 339.61 82.7701 339.818 82.5935 340.092C82.4169 340.365 82.2802 340.696 82.1833 341.083C82.0922 341.465 82.0466 341.895 82.0466 342.373V342.715C82.0466 343.12 82.1007 343.496 82.209 343.843C82.3229 344.185 82.4881 344.484 82.7046 344.74C82.9211 344.997 83.1831 345.199 83.4907 345.347C83.7983 345.489 84.1487 345.561 84.5417 345.561C85.0374 345.561 85.4788 345.461 85.8662 345.261C86.2536 345.062 86.5897 344.78 86.8745 344.416L87.9597 345.467C87.7603 345.757 87.5011 346.036 87.1821 346.304C86.8631 346.566 86.4729 346.78 86.0115 346.945C85.5557 347.11 85.026 347.193 84.4221 347.193ZM92.6167 345.39L94.8811 337.776H97.0173L93.8044 347.022H92.4714L92.6167 345.39ZM90.8821 337.776L93.1892 345.424L93.3003 347.022H91.9673L88.7373 337.776H90.8821ZM108.416 340.459V341.143C108.416 342.083 108.294 342.926 108.049 343.672C107.804 344.418 107.454 345.054 106.998 345.578C106.548 346.102 106.007 346.503 105.374 346.782C104.742 347.056 104.041 347.193 103.272 347.193C102.509 347.193 101.811 347.056 101.179 346.782C100.552 346.503 100.008 346.102 99.5466 345.578C99.0852 345.054 98.7263 344.418 98.47 343.672C98.2193 342.926 98.094 342.083 98.094 341.143V340.459C98.094 339.519 98.2193 338.679 98.47 337.938C98.7206 337.192 99.0738 336.557 99.5295 336.033C99.991 335.503 100.535 335.102 101.162 334.828C101.794 334.549 102.492 334.409 103.255 334.409C104.024 334.409 104.725 334.549 105.357 334.828C105.99 335.102 106.534 335.503 106.989 336.033C107.445 336.557 107.795 337.192 108.04 337.938C108.291 338.679 108.416 339.519 108.416 340.459ZM106.271 341.143V340.442C106.271 339.747 106.203 339.135 106.066 338.605C105.935 338.069 105.739 337.622 105.477 337.263C105.22 336.899 104.904 336.625 104.528 336.443C104.152 336.255 103.728 336.161 103.255 336.161C102.782 336.161 102.361 336.255 101.99 336.443C101.62 336.625 101.304 336.899 101.042 337.263C100.786 337.622 100.589 338.069 100.452 338.605C100.316 339.135 100.247 339.747 100.247 340.442V341.143C100.247 341.838 100.316 342.453 100.452 342.989C100.589 343.524 100.788 343.977 101.051 344.347C101.318 344.712 101.637 344.988 102.008 345.176C102.378 345.358 102.799 345.449 103.272 345.449C103.751 345.449 104.175 345.358 104.545 345.176C104.916 344.988 105.229 344.712 105.485 344.347C105.742 343.977 105.935 343.524 106.066 342.989C106.203 342.453 106.271 341.838 106.271 341.143ZM112.424 339.553V350.576H110.365V337.776H112.261L112.424 339.553ZM118.448 342.313V342.493C118.448 343.165 118.368 343.789 118.209 344.364C118.055 344.934 117.824 345.432 117.517 345.86C117.215 346.281 116.842 346.609 116.397 346.842C115.953 347.076 115.44 347.193 114.859 347.193C114.284 347.193 113.78 347.087 113.347 346.876C112.919 346.66 112.558 346.355 112.261 345.962C111.965 345.569 111.726 345.108 111.544 344.578C111.367 344.042 111.242 343.456 111.168 342.818V342.125C111.242 341.448 111.367 340.832 111.544 340.28C111.726 339.727 111.965 339.252 112.261 338.853C112.558 338.454 112.919 338.146 113.347 337.93C113.774 337.713 114.272 337.605 114.842 337.605C115.423 337.605 115.939 337.719 116.389 337.947C116.839 338.169 117.218 338.488 117.525 338.904C117.833 339.314 118.063 339.81 118.217 340.391C118.371 340.966 118.448 341.607 118.448 342.313ZM116.389 342.493V342.313C116.389 341.886 116.349 341.49 116.269 341.126C116.189 340.755 116.064 340.431 115.893 340.152C115.722 339.872 115.503 339.656 115.235 339.502C114.973 339.343 114.657 339.263 114.287 339.263C113.922 339.263 113.609 339.326 113.347 339.451C113.085 339.571 112.865 339.739 112.689 339.955C112.512 340.172 112.375 340.425 112.279 340.716C112.182 341 112.113 341.311 112.073 341.647V343.305C112.142 343.715 112.259 344.091 112.424 344.433C112.589 344.774 112.823 345.048 113.125 345.253C113.432 345.452 113.825 345.552 114.304 345.552C114.674 345.552 114.99 345.472 115.252 345.313C115.514 345.153 115.728 344.934 115.893 344.655C116.064 344.37 116.189 344.042 116.269 343.672C116.349 343.302 116.389 342.909 116.389 342.493ZM125.386 344.518C125.386 344.313 125.335 344.128 125.233 343.963C125.13 343.792 124.934 343.638 124.643 343.501C124.358 343.365 123.937 343.239 123.378 343.125C122.889 343.017 122.438 342.889 122.028 342.741C121.624 342.587 121.276 342.402 120.986 342.185C120.695 341.969 120.47 341.712 120.311 341.416C120.151 341.12 120.072 340.778 120.072 340.391C120.072 340.015 120.154 339.659 120.319 339.323C120.485 338.987 120.721 338.69 121.029 338.434C121.336 338.178 121.709 337.976 122.148 337.827C122.592 337.679 123.088 337.605 123.635 337.605C124.41 337.605 125.073 337.736 125.626 337.998C126.184 338.255 126.611 338.605 126.907 339.049C127.204 339.488 127.352 339.984 127.352 340.536H125.292C125.292 340.291 125.23 340.063 125.104 339.853C124.985 339.636 124.803 339.462 124.558 339.331C124.313 339.195 124.005 339.126 123.635 339.126C123.282 339.126 122.988 339.183 122.755 339.297C122.527 339.405 122.356 339.548 122.242 339.724C122.134 339.901 122.08 340.095 122.08 340.305C122.08 340.459 122.108 340.599 122.165 340.724C122.228 340.844 122.33 340.955 122.473 341.057C122.615 341.154 122.809 341.245 123.054 341.331C123.304 341.416 123.618 341.499 123.994 341.579C124.7 341.727 125.307 341.918 125.814 342.151C126.326 342.379 126.719 342.675 126.993 343.04C127.266 343.399 127.403 343.854 127.403 344.407C127.403 344.817 127.315 345.193 127.138 345.535C126.967 345.871 126.717 346.164 126.386 346.415C126.056 346.66 125.66 346.851 125.198 346.988C124.743 347.124 124.23 347.193 123.66 347.193C122.823 347.193 122.114 347.045 121.533 346.748C120.952 346.446 120.51 346.062 120.208 345.595C119.912 345.122 119.764 344.632 119.764 344.125H121.755C121.778 344.507 121.883 344.811 122.071 345.039C122.265 345.261 122.504 345.424 122.789 345.526C123.079 345.623 123.378 345.672 123.686 345.672C124.056 345.672 124.367 345.623 124.617 345.526C124.868 345.424 125.059 345.287 125.19 345.116C125.321 344.94 125.386 344.74 125.386 344.518Z" fill="#121314"/>
<rect x="357.79" y="1.78977" width="311.42" height="293.614" rx="146.807" fill="white"/>
<rect x="357.79" y="1.78977" width="311.42" height="293.614" rx="146.807" stroke="url(#paint1_radial_81_462)" stroke-width="3.57955"/>
<rect x="357.79" y="1.78977" width="311.42" height="293.614" rx="146.807" stroke="url(#paint2_radial_81_462)" stroke-width="3.57955"/>
<rect x="456.679" y="64.4319" width="113.642" height="112.642" rx="56.321" fill="white"/>
<rect x="456.679" y="64.4319" width="113.642" height="112.642" rx="56.321" fill="url(#paint3_radial_81_462)" fill-opacity="0.08"/>
<rect x="456.679" y="64.4319" width="113.642" height="112.642" rx="56.321" fill="url(#paint4_radial_81_462)" fill-opacity="0.08"/>
<g clip-path="url(#clip1_81_462)">
<path d="M513.255 145.558C500.339 145.558 501.146 140.066 501.146 140.066L501.16 134.377H513.486V132.669H496.265C496.265 132.669 488 133.588 488 120.812C488 108.035 495.214 108.488 495.214 108.488H499.519V114.417C499.519 114.417 499.287 121.489 506.617 121.489H518.842C518.842 121.489 525.71 121.38 525.71 127.997V138.937C525.71 138.937 526.753 145.558 513.255 145.558ZM506.459 141.732C507.685 141.732 508.676 140.76 508.676 139.558C508.676 138.356 507.685 137.384 506.459 137.384C505.233 137.384 504.242 138.356 504.242 139.558C504.242 140.76 505.233 141.732 506.459 141.732Z" fill="url(#paint5_linear_81_462)"/>
<path d="M513.622 95.9376C526.538 95.9376 525.731 101.429 525.731 101.429L525.717 107.118H513.392V108.826H530.612C530.612 108.826 538.877 107.907 538.877 120.684C538.877 133.46 531.664 133.007 531.664 133.007H527.358V127.078C527.358 127.078 527.59 120.006 520.26 120.006H508.035C508.035 120.006 501.167 120.115 501.167 113.498V102.558C501.167 102.558 500.124 95.9376 513.622 95.9376ZM520.418 99.7631C519.192 99.7631 518.201 100.735 518.201 101.937C518.201 103.139 519.192 104.111 520.418 104.111C521.644 104.111 522.636 103.139 522.636 101.937C522.636 100.735 521.644 99.7631 520.418 99.7631Z" fill="url(#paint6_linear_81_462)"/>
</g>
<path d="M402.282 204.403H405.61L411.175 219.727L416.726 204.403H420.068L412.504 224.761H409.833L402.282 204.403ZM400.604 204.403H403.862L404.45 218.483V224.761H400.604V204.403ZM418.474 204.403H421.746V224.761H417.901V218.483L418.474 204.403ZM433.715 221.545V214.568C433.715 214.055 433.627 213.612 433.45 213.24C433.273 212.867 433.002 212.578 432.639 212.373C432.275 212.168 431.814 212.065 431.254 212.065C430.76 212.065 430.327 212.149 429.954 212.317C429.59 212.485 429.311 212.722 429.115 213.03C428.919 213.328 428.821 213.673 428.821 214.065H425.116C425.116 213.44 425.265 212.848 425.563 212.289C425.862 211.72 426.286 211.217 426.836 210.779C427.395 210.331 428.062 209.982 428.835 209.73C429.618 209.478 430.495 209.352 431.464 209.352C432.611 209.352 433.631 209.548 434.526 209.94C435.43 210.322 436.139 210.9 436.652 211.674C437.174 212.447 437.435 213.421 437.435 214.596V221.196C437.435 221.951 437.481 222.599 437.574 223.139C437.677 223.671 437.826 224.132 438.022 224.524V224.761H434.261C434.083 224.379 433.948 223.894 433.855 223.307C433.762 222.71 433.715 222.123 433.715 221.545ZM434.233 215.547L434.261 217.742H431.926C431.348 217.742 430.84 217.803 430.401 217.924C429.963 218.036 429.604 218.203 429.325 218.427C429.045 218.642 428.835 218.903 428.696 219.21C428.556 219.508 428.486 219.849 428.486 220.231C428.486 220.604 428.57 220.939 428.737 221.238C428.915 221.536 429.166 221.774 429.493 221.951C429.828 222.119 430.22 222.202 430.667 222.202C431.32 222.202 431.888 222.072 432.373 221.811C432.858 221.541 433.235 221.214 433.506 220.832C433.776 220.45 433.92 220.086 433.939 219.741L435.002 221.335C434.871 221.718 434.675 222.123 434.414 222.552C434.153 222.981 433.818 223.382 433.408 223.754C432.998 224.127 432.503 224.435 431.926 224.677C431.348 224.92 430.676 225.041 429.912 225.041C428.933 225.041 428.057 224.845 427.283 224.454C426.51 224.062 425.899 223.526 425.452 222.846C425.004 222.165 424.78 221.391 424.78 220.525C424.78 219.723 424.93 219.014 425.228 218.399C425.526 217.784 425.969 217.267 426.556 216.847C427.143 216.418 427.871 216.097 428.737 215.882C429.614 215.659 430.616 215.547 431.744 215.547H434.233ZM446.971 222.133C447.493 222.133 447.959 222.03 448.369 221.825C448.779 221.62 449.105 221.331 449.348 220.958C449.6 220.585 449.735 220.152 449.753 219.658H453.235C453.216 220.683 452.927 221.601 452.368 222.412C451.809 223.223 451.063 223.866 450.131 224.342C449.208 224.808 448.173 225.041 447.027 225.041C445.862 225.041 444.845 224.845 443.979 224.454C443.112 224.062 442.389 223.517 441.811 222.818C441.243 222.119 440.814 221.308 440.525 220.385C440.245 219.462 440.105 218.474 440.105 217.42V216.973C440.105 215.92 440.245 214.931 440.525 214.009C440.814 213.086 441.243 212.275 441.811 211.576C442.389 210.877 443.112 210.331 443.979 209.94C444.845 209.548 445.857 209.352 447.013 209.352C448.234 209.352 449.306 209.59 450.229 210.066C451.161 210.541 451.888 211.212 452.41 212.079C452.941 212.946 453.216 213.967 453.235 215.141H449.753C449.735 214.601 449.614 214.116 449.39 213.687C449.166 213.258 448.849 212.913 448.439 212.652C448.029 212.391 447.53 212.261 446.943 212.261C446.318 212.261 445.796 212.391 445.377 212.652C444.967 212.913 444.645 213.272 444.412 213.729C444.188 214.176 444.03 214.68 443.937 215.239C443.853 215.789 443.811 216.367 443.811 216.973V217.42C443.811 218.036 443.853 218.623 443.937 219.182C444.03 219.741 444.188 220.245 444.412 220.692C444.645 221.13 444.967 221.48 445.377 221.741C445.796 222.002 446.328 222.133 446.971 222.133ZM459.317 203.284V224.761H455.612V203.284H459.317ZM458.73 216.651H457.64C457.64 215.598 457.779 214.629 458.059 213.743C458.339 212.857 458.735 212.088 459.248 211.436C459.76 210.774 460.371 210.261 461.079 209.898C461.797 209.534 462.589 209.352 463.456 209.352C464.202 209.352 464.878 209.46 465.484 209.674C466.099 209.879 466.626 210.21 467.064 210.667C467.502 211.124 467.837 211.72 468.071 212.457C468.313 213.184 468.434 214.069 468.434 215.113V224.761H464.715V215.085C464.715 214.386 464.612 213.836 464.407 213.435C464.202 213.025 463.908 212.732 463.526 212.554C463.153 212.377 462.692 212.289 462.142 212.289C461.545 212.289 461.033 212.405 460.604 212.638C460.175 212.862 459.821 213.174 459.541 213.575C459.271 213.976 459.066 214.437 458.926 214.959C458.795 215.481 458.73 216.045 458.73 216.651ZM475.607 209.632V224.761H471.902V209.632H475.607ZM471.65 205.675C471.65 205.125 471.837 204.668 472.209 204.305C472.592 203.941 473.104 203.759 473.747 203.759C474.391 203.759 474.899 203.941 475.272 204.305C475.654 204.668 475.845 205.125 475.845 205.675C475.845 206.216 475.654 206.668 475.272 207.031C474.899 207.395 474.391 207.577 473.747 207.577C473.104 207.577 472.592 207.395 472.209 207.031C471.837 206.668 471.65 206.216 471.65 205.675ZM482.752 212.862V224.761H479.061V209.632H482.529L482.752 212.862ZM482.165 216.651H481.074C481.084 215.551 481.233 214.554 481.522 213.659C481.811 212.764 482.216 211.995 482.738 211.352C483.27 210.709 483.899 210.215 484.626 209.87C485.353 209.525 486.164 209.352 487.059 209.352C487.786 209.352 488.443 209.455 489.03 209.66C489.618 209.865 490.121 210.191 490.541 210.639C490.969 211.086 491.296 211.674 491.519 212.401C491.752 213.118 491.869 214.004 491.869 215.057V224.761H488.15V215.029C488.15 214.34 488.047 213.794 487.842 213.393C487.646 212.993 487.357 212.708 486.975 212.54C486.602 212.373 486.141 212.289 485.591 212.289C485.022 212.289 484.523 212.405 484.095 212.638C483.675 212.862 483.321 213.174 483.032 213.575C482.752 213.976 482.538 214.437 482.389 214.959C482.24 215.481 482.165 216.045 482.165 216.651ZM501.922 225.041C500.776 225.041 499.746 224.854 498.832 224.482C497.919 224.109 497.14 223.591 496.497 222.93C495.863 222.258 495.374 221.48 495.029 220.594C494.693 219.7 494.526 218.739 494.526 217.714V217.155C494.526 215.989 494.693 214.931 495.029 213.981C495.365 213.021 495.84 212.196 496.455 211.506C497.07 210.816 497.807 210.285 498.664 209.912C499.522 209.539 500.468 209.352 501.503 209.352C502.575 209.352 503.521 209.534 504.341 209.898C505.162 210.252 505.847 210.755 506.397 211.408C506.947 212.06 507.362 212.843 507.641 213.757C507.921 214.661 508.061 215.663 508.061 216.763V218.315H496.204V215.77H504.425V215.491C504.407 214.903 504.295 214.367 504.09 213.883C503.885 213.389 503.568 212.997 503.139 212.708C502.71 212.41 502.155 212.261 501.475 212.261C500.925 212.261 500.445 212.382 500.035 212.624C499.634 212.857 499.298 213.193 499.028 213.631C498.767 214.06 498.571 214.573 498.441 215.169C498.31 215.766 498.245 216.428 498.245 217.155V217.714C498.245 218.348 498.329 218.935 498.497 219.476C498.674 220.016 498.93 220.487 499.266 220.888C499.611 221.28 500.021 221.587 500.496 221.811C500.981 222.025 501.531 222.133 502.146 222.133C502.92 222.133 503.619 221.983 504.244 221.685C504.877 221.377 505.427 220.925 505.893 220.329L507.753 222.258C507.436 222.724 507.007 223.172 506.467 223.601C505.935 224.029 505.292 224.379 504.537 224.649C503.782 224.91 502.911 225.041 501.922 225.041ZM530.866 221.741V224.761H520.631V221.741H530.866ZM521.792 204.403V224.761H517.946V204.403H521.792ZM539.955 225.041C538.809 225.041 537.778 224.854 536.865 224.482C535.951 224.109 535.173 223.591 534.53 222.93C533.896 222.258 533.407 221.48 533.062 220.594C532.726 219.7 532.558 218.739 532.558 217.714V217.155C532.558 215.989 532.726 214.931 533.062 213.981C533.397 213.021 533.873 212.196 534.488 211.506C535.103 210.816 535.84 210.285 536.697 209.912C537.555 209.539 538.501 209.352 539.536 209.352C540.608 209.352 541.554 209.534 542.374 209.898C543.194 210.252 543.88 210.755 544.43 211.408C544.979 212.06 545.394 212.843 545.674 213.757C545.954 214.661 546.093 215.663 546.093 216.763V218.315H534.236V215.77H542.458V215.491C542.439 214.903 542.327 214.367 542.122 213.883C541.917 213.389 541.6 212.997 541.172 212.708C540.743 212.41 540.188 212.261 539.508 212.261C538.958 212.261 538.478 212.382 538.067 212.624C537.667 212.857 537.331 213.193 537.061 213.631C536.8 214.06 536.604 214.573 536.473 215.169C536.343 215.766 536.278 216.428 536.278 217.155V217.714C536.278 218.348 536.362 218.935 536.529 219.476C536.706 220.016 536.963 220.487 537.298 220.888C537.643 221.28 538.053 221.587 538.529 221.811C539.014 222.025 539.564 222.133 540.179 222.133C540.953 222.133 541.652 221.983 542.276 221.685C542.91 221.377 543.46 220.925 543.926 220.329L545.786 222.258C545.469 222.724 545.04 223.172 544.499 223.601C543.968 224.029 543.325 224.379 542.57 224.649C541.815 224.91 540.943 225.041 539.955 225.041ZM556.902 221.545V214.568C556.902 214.055 556.813 213.612 556.636 213.24C556.459 212.867 556.189 212.578 555.825 212.373C555.462 212.168 555 212.065 554.441 212.065C553.947 212.065 553.514 212.149 553.141 212.317C552.777 212.485 552.497 212.722 552.302 213.03C552.106 213.328 552.008 213.673 552.008 214.065H548.303C548.303 213.44 548.452 212.848 548.75 212.289C549.048 211.72 549.473 211.217 550.023 210.779C550.582 210.331 551.248 209.982 552.022 209.73C552.805 209.478 553.681 209.352 554.651 209.352C555.797 209.352 556.818 209.548 557.713 209.94C558.617 210.322 559.326 210.9 559.838 211.674C560.36 212.447 560.621 213.421 560.621 214.596V221.196C560.621 221.951 560.668 222.599 560.761 223.139C560.864 223.671 561.013 224.132 561.209 224.524V224.761H557.447C557.27 224.379 557.135 223.894 557.042 223.307C556.949 222.71 556.902 222.123 556.902 221.545ZM557.419 215.547L557.447 217.742H555.112C554.534 217.742 554.026 217.803 553.588 217.924C553.15 218.036 552.791 218.203 552.511 218.427C552.232 218.642 552.022 218.903 551.882 219.21C551.742 219.508 551.672 219.849 551.672 220.231C551.672 220.604 551.756 220.939 551.924 221.238C552.101 221.536 552.353 221.774 552.679 221.951C553.015 222.119 553.406 222.202 553.854 222.202C554.506 222.202 555.075 222.072 555.56 221.811C556.044 221.541 556.422 221.214 556.692 220.832C556.963 220.45 557.107 220.086 557.126 219.741L558.188 221.335C558.058 221.718 557.862 222.123 557.601 222.552C557.34 222.981 557.005 223.382 556.594 223.754C556.184 224.127 555.69 224.435 555.112 224.677C554.534 224.92 553.863 225.041 553.099 225.041C552.12 225.041 551.244 224.845 550.47 224.454C549.696 224.062 549.086 223.526 548.638 222.846C548.191 222.165 547.967 221.391 547.967 220.525C547.967 219.723 548.116 219.014 548.415 218.399C548.713 217.784 549.156 217.267 549.743 216.847C550.33 216.418 551.057 216.097 551.924 215.882C552.8 215.659 553.803 215.547 554.93 215.547H557.419ZM567.641 212.722V224.761H563.949V209.632H567.445L567.641 212.722ZM572.241 209.534L572.185 212.974C571.98 212.937 571.747 212.909 571.486 212.89C571.234 212.871 570.996 212.862 570.773 212.862C570.204 212.862 569.705 212.941 569.277 213.1C568.848 213.249 568.489 213.468 568.2 213.757C567.92 214.046 567.706 214.4 567.557 214.82C567.408 215.23 567.324 215.696 567.305 216.218L566.508 216.12C566.508 215.16 566.606 214.27 566.802 213.449C566.997 212.629 567.282 211.911 567.655 211.296C568.027 210.681 568.494 210.205 569.053 209.87C569.621 209.525 570.274 209.352 571.01 209.352C571.215 209.352 571.435 209.371 571.668 209.408C571.91 209.436 572.101 209.478 572.241 209.534ZM577.89 212.862V224.761H574.198V209.632H577.666L577.89 212.862ZM577.303 216.651H576.212C576.221 215.551 576.37 214.554 576.659 213.659C576.948 212.764 577.354 211.995 577.876 211.352C578.407 210.709 579.036 210.215 579.764 209.87C580.491 209.525 581.302 209.352 582.197 209.352C582.924 209.352 583.581 209.455 584.168 209.66C584.755 209.865 585.259 210.191 585.678 210.639C586.107 211.086 586.433 211.674 586.657 212.401C586.89 213.118 587.007 214.004 587.007 215.057V224.761H583.287V215.029C583.287 214.34 583.185 213.794 582.98 213.393C582.784 212.993 582.495 212.708 582.113 212.54C581.74 212.373 581.278 212.289 580.728 212.289C580.16 212.289 579.661 212.405 579.232 212.638C578.813 212.862 578.459 213.174 578.17 213.575C577.89 213.976 577.675 214.437 577.526 214.959C577.377 215.481 577.303 216.045 577.303 216.651ZM594.18 209.632V224.761H590.474V209.632H594.18ZM590.223 205.675C590.223 205.125 590.409 204.668 590.782 204.305C591.164 203.941 591.677 203.759 592.32 203.759C592.963 203.759 593.471 203.941 593.844 204.305C594.226 204.668 594.417 205.125 594.417 205.675C594.417 206.216 594.226 206.668 593.844 207.031C593.471 207.395 592.963 207.577 592.32 207.577C591.677 207.577 591.164 207.395 590.782 207.031C590.409 206.668 590.223 206.216 590.223 205.675ZM601.325 212.862V224.761H597.633V209.632H601.101L601.325 212.862ZM600.737 216.651H599.647C599.656 215.551 599.805 214.554 600.094 213.659C600.383 212.764 600.789 211.995 601.311 211.352C601.842 210.709 602.471 210.215 603.198 209.87C603.925 209.525 604.736 209.352 605.631 209.352C606.358 209.352 607.016 209.455 607.603 209.66C608.19 209.865 608.694 210.191 609.113 210.639C609.542 211.086 609.868 211.674 610.092 212.401C610.325 213.118 610.441 214.004 610.441 215.057V224.761H606.722V215.029C606.722 214.34 606.619 213.794 606.414 213.393C606.219 212.993 605.93 212.708 605.547 212.54C605.175 212.373 604.713 212.289 604.163 212.289C603.595 212.289 603.096 212.405 602.667 212.638C602.248 212.862 601.893 213.174 601.604 213.575C601.325 213.976 601.11 214.437 600.961 214.959C600.812 215.481 600.737 216.045 600.737 216.651ZM623.319 209.632H626.675V224.3C626.675 225.67 626.377 226.831 625.78 227.781C625.193 228.742 624.368 229.469 623.305 229.963C622.243 230.466 621.008 230.718 619.6 230.718C618.994 230.718 618.337 230.634 617.628 230.466C616.929 230.298 616.253 230.033 615.601 229.669C614.958 229.315 614.422 228.853 613.993 228.285L615.657 226.104C616.16 226.691 616.729 227.134 617.363 227.432C617.997 227.74 618.682 227.893 619.418 227.893C620.164 227.893 620.798 227.754 621.32 227.474C621.851 227.204 622.257 226.803 622.536 226.271C622.825 225.749 622.97 225.106 622.97 224.342V213.086L623.319 209.632ZM613.098 217.378V217.085C613.098 215.929 613.238 214.88 613.518 213.939C613.797 212.988 614.198 212.172 614.72 211.492C615.251 210.811 615.89 210.285 616.636 209.912C617.391 209.539 618.239 209.352 619.18 209.352C620.178 209.352 621.017 209.534 621.697 209.898C622.387 210.261 622.956 210.779 623.403 211.45C623.86 212.121 624.214 212.918 624.466 213.841C624.727 214.754 624.927 215.761 625.067 216.861V217.658C624.937 218.73 624.727 219.714 624.438 220.608C624.158 221.503 623.785 222.286 623.319 222.957C622.853 223.619 622.275 224.132 621.585 224.496C620.896 224.859 620.085 225.041 619.153 225.041C618.22 225.041 617.381 224.85 616.636 224.468C615.89 224.085 615.251 223.549 614.72 222.86C614.198 222.17 613.797 221.359 613.518 220.427C613.238 219.494 613.098 218.478 613.098 217.378ZM616.789 217.085V217.378C616.789 218.031 616.855 218.642 616.985 219.21C617.116 219.779 617.316 220.282 617.586 220.72C617.857 221.149 618.197 221.485 618.607 221.727C619.017 221.969 619.507 222.091 620.075 222.091C620.84 222.091 621.464 221.932 621.949 221.615C622.443 221.289 622.816 220.846 623.068 220.287C623.329 219.718 623.496 219.08 623.571 218.371V216.176C623.524 215.617 623.422 215.099 623.263 214.624C623.114 214.148 622.905 213.738 622.634 213.393C622.364 213.048 622.019 212.778 621.599 212.582C621.18 212.387 620.681 212.289 620.103 212.289C619.544 212.289 619.055 212.415 618.635 212.666C618.216 212.909 617.871 213.249 617.6 213.687C617.33 214.125 617.125 214.633 616.985 215.211C616.855 215.789 616.789 216.414 616.789 217.085Z" fill="#121314"/>
<defs>
<linearGradient id="paint0_linear_81_462" x1="111.895" y1="169.075" x2="556.891" y2="202.12" gradientUnits="userSpaceOnUse">
<stop stop-color="#8D74F2"/>
<stop offset="1" stop-color="#7051EF"/>
</linearGradient>
<radialGradient id="paint1_radial_81_462" cx="0" cy="0" r="1" gradientUnits="userSpaceOnUse" gradientTransform="translate(397.851 298.597) scale(411.222 387.961)">
<stop offset="0.09" stop-color="#7051EF" stop-opacity="0.1"/>
<stop offset="0.78" stop-color="#7051EF"/>
</radialGradient>
<radialGradient id="paint2_radial_81_462" cx="0" cy="0" r="1" gradientUnits="userSpaceOnUse" gradientTransform="translate(547.041 311.911) scale(324.1 305.767)">
<stop offset="0.64" stop-color="#7051EF" stop-opacity="0.1"/>
<stop offset="1" stop-color="#7051EF"/>
</radialGradient>
<radialGradient id="paint3_radial_81_462" cx="0" cy="0" r="1" gradientUnits="userSpaceOnUse" gradientTransform="translate(525.601 182.652) scale(116.925 115.892)">
<stop offset="0.64" stop-color="#8D74F2"/>
<stop offset="1" stop-color="#7051EF"/>
</radialGradient>
<radialGradient id="paint4_radial_81_462" cx="0" cy="0" r="1" gradientUnits="userSpaceOnUse" gradientTransform="translate(471.778 177.606) scale(148.356 147.045)">
<stop offset="0.09" stop-color="#8D74F2"/>
<stop offset="0.78" stop-color="#7051EF"/>
</radialGradient>
<linearGradient id="paint5_linear_81_462" x1="492.889" y1="141.094" x2="517.608" y2="116.133" gradientUnits="userSpaceOnUse">
<stop stop-color="#8D71FF"/>
<stop offset="1" stop-color="#7051EF"/>
</linearGradient>
<linearGradient id="paint6_linear_81_462" x1="508.365" y1="125.38" x2="534.935" y2="99.7608" gradientUnits="userSpaceOnUse">
<stop stop-color="#FFE052"/>
<stop offset="1" stop-color="#FFC331"/>
</linearGradient>
<clipPath id="clip0_81_462">
<rect x="100" y="125" width="454.634" height="467.19" rx="227.317" fill="white"/>
</clipPath>
<clipPath id="clip1_81_462">
<rect width="51" height="50" fill="white" transform="matrix(1 0 0 -1 488 145.753)"/>
</clipPath>
</defs>
</svg>
